<svg xmlns="http://www.w3.org/2000/svg" viewBox="0 0 506.9 203.86" class="svg replaced-svg">
<path d="M90.86,2.08V5.21L16.14,129.4H0v-2.87L65.61,17.18H2.86V2.08ZM37.75,114.3H92.68v15.1h-63Z" style="fill:#00ffc0"></path>
<path d="M114,2.08h15.88V55.45L114,66.91Zm0,127.32V77.07l15.88-11.72V129.4Z" style="fill:#00ffc0"></path>
<path d="M166.62,2.08l35.67,88.78L195,115.34,149.18,2.08Zm81.75,0h17.44L215.31,129.4H200.73l7-24.22Z" style="fill:#00ffc0"></path>
<path d="M291.33,65.87a49.29,49.29,0,0,0,6.51,25.25q1.31,2.09,1.56,2.61A154.25,154.25,0,0,0,290,108.31a58.21,58.21,0,0,1-6.51-9.11,65.29,65.29,0,0,1-8.59-33.33q0-18.75,8.59-33.59A62.17,62.17,0,0,1,307.21,8.59,69.17,69.17,0,0,1,341.58,0q19,0,34.1,8.59a3.47,3.47,0,0,1,.79.52q-7.31,6.51-12.76,11.46a49.83,49.83,0,0,0-22.13-5,51.19,51.19,0,0,0-25.77,6.51,47.11,47.11,0,0,0-18,18A51.31,51.31,0,0,0,291.33,65.87ZM399.38,32.28Q408,47.13,408,65.87a65.38,65.38,0,0,1-8.59,33.33,62.13,62.13,0,0,1-23.7,23.69q-15.09,8.58-34.1,8.59a69.28,69.28,0,0,1-34.37-8.59c-2.26-1.57-4.42-3-6.51-4.43q3.39-5.71,8.59-13.8a31.3,31.3,0,0,0,6.52,4.43,49.68,49.68,0,0,0,25.77,6.77,51.64,51.64,0,0,0,25.51-6.51,46.53,46.53,0,0,0,18.23-18,50.8,50.8,0,0,0,6.51-25.51,51.41,51.41,0,0,0-6.51-25.78,44,44,0,0,0-10.16-12.23Q377,26,381,22.26t5.86-5.6A58.06,58.06,0,0,1,399.38,32.28Z" style="fill:#00ffc0"></path>
<path d="M448.84,114H506.9V129.4H433V2.08h72.12V17.44H448.84Zm51.55-42.69H456.91V56.5h43.48Z" style="fill:#00ffc0"></path>
<circle cx="342.3" cy="66.61" r="11.08" style="fill:#00ffc0"></circle>
<path d="M82,165.36v15.13h21.76v5.33H82v17.54h-6.2V160h30.63v5.4Z">
</path><path d="M127.53,160h6.2v43.4h-6.2Z"></path>
<path d="M196.47,160v43.4h-5.08l-26-32.36v32.36h-6.2V160h5.08l26,32.37V160Z"></path>
<path d="M317,160v43.4h-5.08l-26-32.36v32.36h-6.2V160h5.08l26,32.37V160Z"></path>
<path d="M350.08,201a21.2,21.2,0,0,1-8.22-7.94,23.27,23.27,0,0,1,0-22.75,21.22,21.22,0,0,1,8.25-7.94,24.15,24.15,0,0,1,11.78-2.88,24.71,24.71,0,0,1,9.3,1.7,19,19,0,0,1,7.19,5.06l-4,3.9A16.16,16.16,0,0,0,362.14,165a17.69,17.69,0,0,0-8.75,2.17,15.66,15.66,0,0,0-6.1,6,17.62,17.62,0,0,0,0,17.05,15.66,15.66,0,0,0,6.1,6,17.69,17.69,0,0,0,8.75,2.17,16.18,16.18,0,0,0,12.21-5.21l4,3.91a19.19,19.19,0,0,1-7.22,5.08,24.37,24.37,0,0,1-9.33,1.74A24,24,0,0,1,350.08,201Z"></path>
<path d="M431.14,198v5.39H399.65V160h30.62v5.4H405.85v13.33h21.76V184H405.85v14Z"></path>
<polygon points="241.11 159.97 234.97 159.97 215.32 203.37 221.71 203.37 226.48 192.51 226.56 192.51 228.72 187.56 228.65 187.56 238.01 166.29 247.38 187.56 247.37 187.56 254.32 203.37 260.83 203.37 241.11 159.97"></polygon>
</svg>
