<svg width="10" height="10" viewBox="0 0 50 50" fill="none" xmlns="http://www.w3.org/2000/svg">
<path id="ohm" fill-rule="evenodd" clip-rule="evenodd"  d="M78.2,200v-0.5V190v-27.8c-28.5-9-49.1-35-49.1-65.8c0-38.2,31.7-69.1,70.9-69.1s70.9,30.9,70.9,69.1  c0,30.7-20.6,56.8-49.1,65.8V190v9.6v0.5H200v-28.2h-38.6c23.2-17.6,38.2-45,38.2-75.7C199.5,43,155,0,100,0C45,0,0.5,43,0.5,96.1  c0,30.7,14.9,58.1,38.2,75.7H0V200H78.2z"/>
<style>
    #ohm {
      fill: #00FFC0;
    }
    @media (prefers-color-scheme: dark) {
      #ohm {
        fill: #00FFC0;
      }
    }
  </style>
</svg>
