<?xml version="1.0" encoding="utf-8"?>
<!-- Generator: Adobe Illustrator 26.0.1, SVG Export Plug-In . SVG Version: 6.00 Build 0)  -->
<svg version="1.1" id="Layer_1" xmlns="http://www.w3.org/2000/svg" xmlns:xlink="http://www.w3.org/1999/xlink" x="0px" y="0px"
	 viewBox="0 0 143.3 200" style="enable-background:new 0 0 143.3 200;" xml:space="preserve">
<style type="text/css">
	.st0{display:none;fill-rule:evenodd;clip-rule:evenodd;fill:#333333;}
	.st1{fill:#00FFC0;}
</style>
<path class="st0" d="M78.2,200v-0.5V190v-27.8c-28.5-9-49.1-35-49.1-65.8c0-38.2,31.7-69.1,70.9-69.1s70.9,30.9,70.9,69.1
	c0,30.7-20.6,56.8-49.1,65.8V190v9.6v0.5H200v-28.2h-38.6c23.2-17.6,38.2-45,38.2-75.7C199.5,43,155,0,100,0C45,0,0.5,43,0.5,96.1
	c0,30.7,14.9,58.1,38.2,75.7H0V200H78.2z"/>
<g>
	<polygon class="st1" points="143.3,175.4 60.2,175.4 45.5,200 143.3,200 	"/>
	<polygon class="st1" points="140.7,6.7 140.7,0 129.4,0 115.6,0 3.1,0 3.1,24.9 100.7,24.9 10.8,175.4 0,193.4 0,193.7 0,200 
		10.6,200 25.4,200 40.1,175.4 130,24.9 140.7,7 140.8,6.8 	"/>
</g>
</svg>
